<?xml version="1.0" encoding="UTF-8" standalone="no"?>
<!-- Created with Inkscape (http://www.inkscape.org/) -->

<svg
   xmlns:dc="http://purl.org/dc/elements/1.1/"
   xmlns:cc="http://creativecommons.org/ns#"
   xmlns:rdf="http://www.w3.org/1999/02/22-rdf-syntax-ns#"
   xmlns:svg="http://www.w3.org/2000/svg"
   xmlns="http://www.w3.org/2000/svg"
   xmlns:sodipodi="http://sodipodi.sourceforge.net/DTD/sodipodi-0.dtd"
   xmlns:inkscape="http://www.inkscape.org/namespaces/inkscape"
   width="210mm"
   height="297mm"
   viewBox="0 0 210 297"
   version="1.1"
   id="svg8"
   inkscape:version="0.92.4 (5da689c313, 2019-01-14)"
   sodipodi:docname="C_ALEX_0.svg">
  <defs
     id="defs2" />
  <sodipodi:namedview
     id="base"
     pagecolor="#ffffff"
     bordercolor="#666666"
     borderopacity="1.0"
     inkscape:pageopacity="0.0"
     inkscape:pageshadow="2"
     inkscape:zoom="0.24748737"
     inkscape:cx="729.43193"
     inkscape:cy="1137.1966"
     inkscape:document-units="mm"
     inkscape:current-layer="layer1"
     showgrid="false"
     inkscape:window-width="1920"
     inkscape:window-height="1017"
     inkscape:window-x="1912"
     inkscape:window-y="-8"
     inkscape:window-maximized="1" />
  <metadata
     id="metadata5">
    <rdf:RDF>
      <cc:Work
         rdf:about="">
        <dc:format>image/svg+xml</dc:format>
        <dc:type
           rdf:resource="http://purl.org/dc/dcmitype/StillImage" />
        <dc:title></dc:title>
      </cc:Work>
    </rdf:RDF>
  </metadata>
  <g
     inkscape:label="Layer 1"
     inkscape:groupmode="layer"
     id="layer1">
    <path
       style="fill:none;stroke:#000000;stroke-width:0.29569358px;stroke-linecap:butt;stroke-linejoin:miter;stroke-opacity:1"
       d="m 51.870735,126.87455 c 0,0 -4.701648,-3.82369 -15.014937,-4.11782 -10.31329,-0.29413 -17.289931,10.14748 -17.289931,10.14748 0,0 -2.729991,4.41195 -2.578323,14.2653 0.151661,9.85336 5.004969,15.58889 5.004969,15.58889 0,0 3.791661,6.47086 14.863285,6.47086 11.071631,0 14.711608,-3.97076 14.711608,-3.97076 v -7.20618 c 0,0 -6.673312,6.47086 -14.256619,6.47086 -7.583291,0 -12.133278,-7.20618 -12.133278,-7.20618 0,0 -2.426655,-3.67663 -2.426655,-10.58868 0,-6.91205 2.578323,-12.05934 2.578323,-12.05934 0,0 3.943314,-6.61791 12.133286,-6.61791 8.189972,0 13.801614,5.8826 13.801614,5.8826 l -1.364991,12.35346 -0.151661,5.14727 17.59326,0.29413 2.274994,-0.29413 -5.61165,16.91246 5.76331,0.14708 3.791654,-12.50053 18.199929,0.14707 4.246666,12.20638 61.879762,0.29414 11.52662,-18.38312 11.52663,18.23606 6.52165,-0.14708 -14.25662,-22.20681 14.25662,-22.35387 -6.36999,-0.14706 -11.37496,18.38312 -11.07162,-18.38312 h -5.30831 l 0.30333,2.64717 12.58829,19.7067 -12.28495,19.11845 -0.15168,-1.91184 -21.99157,-0.14708 -0.15167,-16.61834 h 22.14324 l -0.15166,-5.14727 -21.99158,-0.14707 v -12.05932 h 21.99158 l -0.15166,-5.29434 -27.45157,-0.14706 v 39.26634 h -19.10992 l -0.15167,-39.11928 -5.76331,-0.14706 0.15166,41.76645 -14.256616,-41.61939 -3.943318,5.14728 7.279974,21.91268 H 75.833979 l 6.976641,-21.61855 3.943333,-5.44141 -7.43165,-0.14706 -9.403295,27.64821 h -2.274994 l -0.151668,-5.0002 -17.59326,-0.29414 1.819989,-12.35346 z"
       id="path834"
       inkscape:connector-curvature="0" />
  </g>
</svg>
