<?xml version="1.0" encoding="UTF-8" standalone="no"?>
<!-- Created with Inkscape (http://www.inkscape.org/) -->

<svg
   xmlns:dc="http://purl.org/dc/elements/1.1/"
   xmlns:cc="http://creativecommons.org/ns#"
   xmlns:rdf="http://www.w3.org/1999/02/22-rdf-syntax-ns#"
   xmlns:svg="http://www.w3.org/2000/svg"
   xmlns="http://www.w3.org/2000/svg"
   xmlns:sodipodi="http://sodipodi.sourceforge.net/DTD/sodipodi-0.dtd"
   xmlns:inkscape="http://www.inkscape.org/namespaces/inkscape"
   width="210mm"
   height="297mm"
   viewBox="0 0 210 297"
   version="1.1"
   id="svg8"
   inkscape:version="0.92.4 (5da689c313, 2019-01-14)"
   sodipodi:docname="C_ALEX_0.svg">
  <defs
     id="defs2" />
  <sodipodi:namedview
     id="base"
     pagecolor="#ffffff"
     bordercolor="#666666"
     borderopacity="1.0"
     inkscape:pageopacity="0.0"
     inkscape:pageshadow="2"
     inkscape:zoom="0.24748737"
     inkscape:cx="729.43193"
     inkscape:cy="1298.821"
     inkscape:document-units="mm"
     inkscape:current-layer="layer1"
     showgrid="false"
     inkscape:window-width="1920"
     inkscape:window-height="1017"
     inkscape:window-x="1912"
     inkscape:window-y="-8"
     inkscape:window-maximized="1" />
  <metadata
     id="metadata5">
    <rdf:RDF>
      <cc:Work
         rdf:about="">
        <dc:format>image/svg+xml</dc:format>
        <dc:type
           rdf:resource="http://purl.org/dc/dcmitype/StillImage" />
        <dc:title></dc:title>
      </cc:Work>
    </rdf:RDF>
  </metadata>
  <g
     inkscape:label="Layer 1"
     inkscape:groupmode="layer"
     id="layer1">
    <path
       style="fill:none;stroke:#000000;stroke-width:0.71629971px;stroke-linecap:butt;stroke-linejoin:miter;stroke-opacity:1"
       d="m 242.50276,108.52921 c 0,0 -11.20161,-9.417976 -35.77286,-10.142446 -24.57125,-0.72446 -41.19299,24.993906 -41.19299,24.993906 0,0 -6.50417,10.86691 -6.14282,35.13635 0.36133,24.26945 11.92427,38.39642 11.92427,38.39642 0,0 9.03356,15.93814 35.41154,15.93814 26.37798,0 35.05018,-9.78023 35.05018,-9.78023 v -17.74928 c 0,0 -15.89906,15.93814 -33.96617,15.93814 -18.06708,0 -28.90736,-17.74928 -28.90736,-17.74928 0,0 -5.78146,-9.05577 -5.78146,-26.08061 0,-17.02483 6.14281,-29.7029 6.14281,-29.7029 0,0 9.39489,-16.30036 28.90737,-16.30036 19.51248,0 32.88212,14.48922 32.88212,14.48922 l -3.25207,30.42736 -0.36133,12.67807 41.91568,0.72446 5.42013,-0.72446 -13.36967,41.65648 13.731,0.36225 9.03355,-30.7896 43.36105,0.36224 10.1176,30.06511 147.42756,0.72447 27.462,-45.2788 27.46199,44.91658 15.53773,-0.36225 -33.96617,-54.6968 33.96617,-55.05902 -15.17637,-0.36222 -27.10067,45.2788 -26.37798,-45.2788 h -12.64695 l 0.72268,6.52013 29.99138,48.53889 -29.26869,47.08997 -0.36136,-4.70899 -52.3946,-0.36225 -0.36133,-40.93205 h 52.75593 l -0.36133,-12.67805 -52.3946,-0.36224 v -29.7029 h 52.3946 l -0.36135,-13.04029 -65.40292,-0.36222 v 96.71553 h -45.5291 l -0.36133,-96.35331 -13.731,-0.36222 0.36133,102.87345 -33.96616,-102.51123 -9.39489,12.67807 17.34443,53.97235 h -34.32752 l 16.62174,-53.24788 9.39491,-13.40254 -17.70578,-0.36222 -22.4032,68.09932 h -5.42013 l -0.36135,-12.31583 -41.91568,-0.72447 4.33611,-30.42736 z"
       id="path834"
       inkscape:connector-curvature="0" />
  </g>
</svg>
