<?xml version="1.0" encoding="UTF-8" standalone="no"?>
<!-- Created with Inkscape (http://www.inkscape.org/) -->

<svg
   xmlns:dc="http://purl.org/dc/elements/1.1/"
   xmlns:cc="http://creativecommons.org/ns#"
   xmlns:rdf="http://www.w3.org/1999/02/22-rdf-syntax-ns#"
   xmlns:svg="http://www.w3.org/2000/svg"
   xmlns="http://www.w3.org/2000/svg"
   xmlns:sodipodi="http://sodipodi.sourceforge.net/DTD/sodipodi-0.dtd"
   xmlns:inkscape="http://www.inkscape.org/namespaces/inkscape"
   width="210mm"
   height="297mm"
   viewBox="0 0 210 297"
   version="1.1"
   id="svg8"
   inkscape:version="0.92.4 (5da689c313, 2019-01-14)"
   sodipodi:docname="Name.svg">
  <defs
     id="defs2" />
  <sodipodi:namedview
     id="base"
     pagecolor="#ffffff"
     bordercolor="#666666"
     borderopacity="1.0"
     inkscape:pageopacity="0.0"
     inkscape:pageshadow="2"
     inkscape:zoom="0.7"
     inkscape:cx="366.13627"
     inkscape:cy="613.3386"
     inkscape:document-units="mm"
     inkscape:current-layer="layer1"
     showgrid="false"
     inkscape:window-width="1920"
     inkscape:window-height="1017"
     inkscape:window-x="1912"
     inkscape:window-y="-8"
     inkscape:window-maximized="1" />
  <metadata
     id="metadata5">
    <rdf:RDF>
      <cc:Work
         rdf:about="">
        <dc:format>image/svg+xml</dc:format>
        <dc:type
           rdf:resource="http://purl.org/dc/dcmitype/StillImage" />
        <dc:title></dc:title>
      </cc:Work>
    </rdf:RDF>
  </metadata>
  <g
     inkscape:label="Layer 1"
     inkscape:groupmode="layer"
     id="layer1">
    <path
       style="fill:none;stroke:#000000;stroke-width:0.35609218px;stroke-linecap:butt;stroke-linejoin:miter;stroke-opacity:1"
       d="m 31.743074,132.61683 -4.23109,-0.18349 v 33.57753 l 19.039908,-0.18347 -3.702205,3.85315 v 2.75226 l 26.796912,-0.18348 0.352591,-2.3853 h 93.96546 v 4.03665 c 0,0 1.76296,1.46788 7.757,1.28438 5.99405,-0.18347 8.28589,-4.03663 8.28589,-4.03663 l 1.76295,-4.95407 v -25.68773 l -3.87728,-0.015 -0.12466,18.29371 c 0,0 -1.99455,2.72459 -5.36037,2.85434 -3.36581,0.12975 -4.86173,-1.42718 -4.86173,-1.42718 0,0 -2.18154,-1.75152 -2.11921,-6.48712 0.0623,-4.73561 2.49319,-8.23866 2.49319,-8.23866 0,0 1.62058,-1.55691 4.05144,-1.55691 2.43088,0 5.79668,1.62179 5.79668,1.62179 l 0.0623,-3.56793 c 0,0 -1.99454,-1.8164 -5.859,-1.88126 -3.86446,-0.0648 -7.54191,3.63279 -7.54191,3.63279 0,0 -3.05416,3.69766 -2.92951,10.63889 0.12467,6.94123 5.23571,10.24967 5.23571,10.24967 0,0 0.56096,0.84332 4.42542,0.84332 3.86445,0 6.54464,-3.04895 6.54464,-3.04895 l -0.18699,4.60587 c 0,0 -0.62331,3.95715 -5.11105,4.34637 -4.48776,0.38924 -8.3522,-1.55691 -8.3522,-1.55691 h -4.7994 l -0.0623,-23.48341 c 0,0 -0.56096,-1.88127 -3.05415,-4.21664 -2.4932,-2.33535 -5.11106,-1.68664 -5.11106,-1.68664 l -2.80483,0.58384 -4.11378,2.7246 v -2.91922 H 140.059 c 0,0 -0.49864,24.97547 0.0623,24.97547 0.56097,0 4.05145,-0.0648 4.05145,-0.0648 v -18.48832 c 0,0 3.49047,-2.52999 3.73979,-2.52999 0.24932,0 3.98911,-1.49204 5.54736,0.12975 1.55824,1.62178 1.8699,3.56791 1.8699,3.56791 l 0.24932,17.51527 3.67745,-0.12975 v 4.02201 l -31.66357,0.0649 0.0624,-3.37331 c 0,0 10.2221,1.55691 10.09744,-13.5581 -0.12466,-15.11502 -10.72073,-12.84452 -10.72073,-12.84452 0,0 -10.28443,0.12975 -10.09744,12.71477 0.18698,12.58505 8.60152,13.62299 8.60152,13.62299 l 1.93223,0.0648 0.24932,-3.43817 c 0,0 6.04599,-0.0648 6.23298,-9.40635 0.18699,-9.34146 -6.41998,-9.79557 -6.41998,-9.79557 0,0 -6.6693,-0.64871 -6.73162,9.47122 -0.0624,10.11992 6.85628,9.7307 6.85628,9.7307 l -0.12466,6.68174 -12.96461,0.12975 0.0623,-22.12113 c 0,0 -0.31165,-3.50305 -3.49046,-6.48713 -3.17883,-2.98407 -9.03783,0.4541 -9.03783,0.4541 l -2.49319,2.07589 -0.12466,-12.71478 -3.86446,-0.0648 0.0624,34.70616 h 3.86446 v -18.5532 c 0,0 4.42541,-4.47611 7.85354,-2.91921 3.42815,1.55691 3.17883,4.0869 3.17883,4.0869 l 0.24932,17.38551 3.80212,0.0648 -0.12467,4.08689 H 83.40121 l 0.06227,-3.56793 c 0,0 2.36854,0.0648 5.67202,-0.90819 3.30349,-0.97307 4.48775,-1.94615 4.48775,-1.94615 v -5.44919 c 0,0 -4.23843,4.73562 -9.848114,4.67074 -5.60969,-0.0648 -7.915893,-3.43818 -7.915893,-3.43818 0,0 -2.991835,-3.37331 -2.929505,-9.92531 0.06233,-6.55201 2.617854,-9.53609 2.617854,-9.53609 0,0 2.368532,-4.02202 7.915888,-4.08688 5.54736,-0.065 10.09744,4.60586 10.09744,4.60586 l 0.0624,-5.25458 c 0,0 -4.11377,-3.04895 -10.346749,-3.04895 -6.232993,0 -10.284433,4.08689 -10.284433,4.08689 0,0 -4.612407,4.86535 -4.363089,14.27168 0.249321,9.40635 5.983667,13.55811 5.983667,13.55811 l 4.487749,2.07589 4.363094,0.19461 -0.06227,3.56792 -40.514414,-0.19461 3.802122,-3.69767 v -4.02201 c 0,0 -15.146156,0.32435 -14.959163,-0.0649 0.186988,-0.38922 0.01336,-29.15263 0.01336,-29.15263 z"
       id="path825"
       inkscape:connector-curvature="0" />
  </g>
</svg>
